<svg width="45" height="27" viewBox="0 0 45 27" fill="none" xmlns="http://www.w3.org/2000/svg">
<path fill-rule="evenodd" clip-rule="evenodd" d="M8.19074 5.73903C6.85533 6.87814 5.20165 8.28874 2.07324 8.28874C1.16783 8.28874 0.416992 7.53791 0.416992 6.63249C0.416992 5.70499 1.16783 4.97624 2.07324 4.97624C4.01658 4.97624 4.87784 4.2254 6.09242 3.1654C7.43951 1.99499 9.11784 0.55957 12.2978 0.55957C15.4558 0.55957 17.1341 1.99499 18.4811 3.1654C19.6957 4.2254 20.5791 4.97624 22.5003 4.97624C24.4437 4.97624 25.327 4.2254 26.5415 3.1654C27.8886 1.99499 29.5449 0.55957 32.7249 0.55957C35.8828 0.55957 37.5611 1.99499 38.9082 3.1654C40.1228 4.2254 40.9841 4.97624 42.9274 4.97624C43.8328 4.97624 44.5837 5.70499 44.5837 6.63249C44.5837 7.53791 43.8328 8.28874 42.9274 8.28874C39.8003 8.28874 38.124 6.8595 36.7836 5.71655L36.7441 5.6829C35.5295 4.6229 34.6462 3.87207 32.7249 3.87207C30.7816 3.87207 29.9203 4.6229 28.7057 5.6829L28.6666 5.7163C27.3261 6.85928 25.6496 8.28874 22.5003 8.28874C19.3732 8.28874 17.6969 6.8595 16.3565 5.71655L16.317 5.6829C15.1024 4.6229 14.2412 3.87207 12.2978 3.87207C10.3545 3.87207 9.47113 4.6229 8.25655 5.6829C8.23469 5.70153 8.21276 5.72025 8.19074 5.73903ZM42.9274 14.0309C41.0257 14.0309 40.1602 13.2907 38.9858 12.2864L38.9082 12.2201C37.5611 11.0497 35.8828 9.61426 32.7249 9.61426C29.5449 9.61426 27.8886 11.0497 26.5415 12.2201L26.5027 12.2533C25.3079 13.2745 24.4229 14.0309 22.5003 14.0309C20.5998 14.0309 19.7149 13.2746 18.5203 12.2536L18.4811 12.2201C17.1341 11.0497 15.4558 9.61426 12.2978 9.61426C9.11784 9.61426 7.43951 11.0497 6.09242 12.2201L6.01488 12.2864C4.84047 13.2908 3.97497 14.0309 2.07324 14.0309C1.16783 14.0309 0.416992 14.7597 0.416992 15.6872C0.416992 16.5926 1.16783 17.3434 2.07324 17.3434C5.23228 17.3434 6.88756 15.9051 8.22987 14.7387L8.25655 14.7155C9.47113 13.6776 10.3545 12.9268 12.2978 12.9268C14.2241 12.9268 15.0872 13.6644 16.285 14.6882L16.317 14.7155C17.6641 15.8859 19.3424 17.3434 22.5003 17.3434C25.6803 17.3434 27.3587 15.8859 28.7057 14.7155L28.7377 14.6882C29.9356 13.6644 30.7987 12.9268 32.7249 12.9268C34.6462 12.9268 35.5295 13.6776 36.7441 14.7155C38.0912 15.8859 39.7695 17.3434 42.9274 17.3434C43.8328 17.3434 44.5837 16.5926 44.5837 15.6872C44.5837 14.7597 43.8328 14.0309 42.9274 14.0309ZM42.9274 23.1276C40.9841 23.1276 40.1228 22.3768 38.9082 21.3168L38.8688 21.2831C37.5283 20.1402 35.8521 18.7109 32.7249 18.7109C29.5964 18.7109 27.9427 20.1216 26.6073 21.2607L26.5415 21.3168C25.327 22.3768 24.4437 23.1276 22.5003 23.1276C20.5791 23.1276 19.6957 22.3768 18.4811 21.3168L18.4417 21.2831C17.1012 20.1402 15.425 18.7109 12.2978 18.7109C9.14858 18.7109 7.4721 20.1404 6.13159 21.2834L6.09242 21.3168C4.87784 22.3768 4.01658 23.1276 2.07324 23.1276C1.16783 23.1276 0.416992 23.8784 0.416992 24.7839C0.416992 25.7114 1.16783 26.4401 2.07324 26.4401C5.25324 26.4401 6.90946 25.0047 8.25655 23.8343C9.47113 22.7743 10.3545 22.0234 12.2978 22.0234C14.2412 22.0234 15.1024 22.7743 16.317 23.8343C17.6641 25.0047 19.3424 26.4401 22.5003 26.4401C25.6803 26.4401 27.3587 25.0047 28.7057 23.8343C29.9203 22.7743 30.7816 22.0234 32.7249 22.0234C34.6462 22.0234 35.5295 22.7743 36.7441 23.8343C38.0912 25.0047 39.7695 26.4401 42.9274 26.4401C43.8328 26.4401 44.5837 25.7114 44.5837 24.7839C44.5837 23.8784 43.8328 23.1276 42.9274 23.1276Z" fill="#141416"/>
</svg>
